{"title":"Chronicle 2012 TS XViD - INSPiRAL","uid":7015810,"size":1465636742,"categoryP":"video","categoryS":"movies","magnet":"?xt=urn:btih:6ed0b2cfc6d4486a8fed3851be256391b3652047&amp;dn=Chronicle+2012+TS+XViD+-+INSPiRAL&amp;tr=udp%3A%2F%2Ftracker.openbittorrent.com%3A80&amp;tr=udp%3A%2F%2Fopen.demonii.com%3A1337&amp;tr=udp%3A%2F%2Ftracker.coppersurfer.tk%3A6969&amp;tr=udp%3A%2F%2Fexodus.desync.com%3A6969","seeders":0,"leechers":1,"uploader":".BONE.","files":2,"time":1328653732,"description":"sources :\nvideo - russian\naudio - english\n\nChronicle 2012 TS XviD - INSPiRAL\n &lt;a href=&quot;\nhttp://www.imdb.com/title/tt1706593/&quot; rel=&quot;nofollow&quot; target=&quot;_NEW&quot;&gt;\nhttp://www.imdb.com/title/tt1706593/&lt;/a&gt;\n\nVideo\nID : 0\nFormat : MPEG-4 Visual\nFormat profile : Advanced Simple@L5\nFormat settings, BVOP : 2\nFormat settings, QPel : No\nFormat settings, GMC : No warppoints\nFormat settings, Matrix : Default (H.263)\nMuxing mode : Packed bitstream\nCodec ID : XVID\nCodec ID/Hint : XviD\nDuration : 1h 15mn\nBit rate : 1 166 Kbps\nWidth : 680 pixels\nHeight : 288 pixels\nDisplay aspect ratio : 2.35:1\nFrame rate : 25.000 fps\nColor space : YUV\nChroma subsampling : 4:2:0\nBit depth : 8 bits\nScan type : Progressive\nCompression mode : Lossy\nBits/(Pixel*Frame) : 0.238\nStream size : 629 MiB (89%)\nWriting library : XviD 64\n\nAudio\nID : 1\nFormat : MPEG Audio\nFormat version : Version 1\nFormat profile : Layer 3\nMode : Joint stereo\nMode extension : MS Stereo\nCodec ID : 55\nCodec ID/Hint : MP3\nDuration : 1h 15mn\nBit rate mode : Constant\nBit rate : 128 Kbps\nChannel(s) : 2 channels\nSampling rate : 44.1 KHz\nCompression mode : Lossy\nStream size : 69.0 MiB (10%)\nAlignment : Split accross interleaves\nInterleave, duration : 40 ms (1.00 video frame)\n\nvideos nice audios nicer\nwant to complain go call your mother\n &lt;a href=&quot;\nhttp://img692.imageshack.us/img692/8696/18694922.png&quot; rel=&quot;nofollow&quot; target=&quot;_NEW&quot;&gt;\nhttp://img692.imageshack.us/img692/8696/18694922.png&lt;/a&gt; &lt;a href=&quot;\nhttp://img818.imageshack.us/img818/9192/95082703.png&quot; rel=&quot;nofollow&quot; target=&quot;_NEW&quot;&gt;\nhttp://img818.imageshack.us/img818/9192/95082703.png&lt;/a&gt; &lt;a href=&quot;\nhttp://img688.imageshack.us/img688/5014/55015704.png&quot; rel=&quot;nofollow&quot; target=&quot;_NEW&quot;&gt;\nhttp://img688.imageshack.us/img688/5014/55015704.png&lt;/a&gt;","torrent":{"xt":"urn:btih:6ed0b2cfc6d4486a8fed3851be256391b3652047","amp;dn":"Chronicle+2012+TS+XViD+-+INSPiRAL","amp;tr":["udp%3A%2F%2Ftracker.openbittorrent.com%3A80","udp%3A%2F%2Fopen.demonii.com%3A1337","udp%3A%2F%2Ftracker.coppersurfer.tk%3A6969","udp%3A%2F%2Fexodus.desync.com%3A6969"],"infoHash":"6ed0b2cfc6d4486a8fed3851be256391b3652047","infoHashBuffer":{"type":"Buffer","data":[110,208,178,207,198,212,72,106,143,237,56,81,190,37,99,145,179,101,32,71]},"announce":[],"urlList":[]}}